<?xml version="1.0" encoding="iso-8859-1"?>
<!-- Uploaded to: SVG Repo, www.svgrepo.com, Generator: SVG Repo Mixer Tools -->
<svg fill="#000000" height="800px" width="800px" version="1.1" id="Layer_1" xmlns="http://www.w3.org/2000/svg" xmlns:xlink="http://www.w3.org/1999/xlink" 
	 viewBox="0 0 512 512" xml:space="preserve">
<g>
	<g>
		<g>
			<path d="M477.042,79.951l-23.737-29.456c-21.809-27.067-54.151-44.522-88.749-47.886c-4.181-0.401-216.077-0.1-217.127,0.001
				c-34.583,3.363-66.926,20.818-88.733,47.885L34.957,79.953C12.414,107.934,0,143.133,0,179.065V498.51v0.001
				c0,6.121,4.963,11.082,11.082,11.082h489.835c6.12,0,11.082-4.962,11.082-11.082v-0.001V179.065
				C512,143.133,499.586,107.934,477.042,79.951z M374.58,26.579c17.663,3.816,34.194,12.063,47.878,23.818H374.58V26.579z
				 M330.251,83.281V24.169h21.721c0.147,0,0.296,0.006,0.443,0.006v59.107c0,26.365-13.259,50.49-35.074,64.686l-16.142-16.142
				C318.607,122.478,330.251,104.08,330.251,83.281z M159.584,24.174c0.147,0,0.296-0.006,0.443-0.006h21.721v59.113
				c0,20.801,11.646,39.201,29.05,48.546l-16.14,16.14c-21.815-14.196-35.074-38.321-35.074-64.686V24.174z M137.42,26.578v23.819
				H89.542C103.227,38.64,119.76,30.392,137.42,26.578z M91.983,487.428H22.164v-22.186h69.818V487.428z M222.753,487.428H114.147
				v-72.056h108.606V487.428z M222.753,393.208H114.147v-66.761h108.606V393.208z M222.753,304.284H114.147v-22.164h108.606V304.284
				z M222.753,259.953H114.147v-78.417c0-6.121-4.963-11.082-11.082-11.082s-11.082,4.962-11.082,11.082v261.541H22.164V179.065
				c0-30.892,10.673-61.152,30.051-85.206L69.598,72.29c0.777,0.173,1.583,0.271,2.413,0.271h65.41v10.72
				c0,37.375,20.685,71.245,53.984,88.392c4.283,2.206,9.502,1.391,12.91-2.016l18.44-18.439V259.953z M267.082,487.428h-22.165
				v-349.09h22.165V487.428z M232.727,115.925c-16.426-2.019-28.814-16.053-28.814-32.643V24.17h104.173v59.112
				c0,16.59-12.388,30.624-28.836,32.646C277.956,116.089,234.043,116.089,232.727,115.925z M397.853,487.428H289.247v-72.056
				h108.606V487.428z M397.853,393.208H289.247v-66.761h108.606V393.208z M397.853,304.284H289.247v-22.164h108.606V304.284z
				 M489.836,487.428h-69.818v-22.186h69.818V487.428z M489.836,443.078h-69.818V228.267c0-6.121-4.963-11.082-11.082-11.082
				s-11.082,4.961-11.082,11.082v31.686H289.247V151.219l18.44,18.439c2.13,2.129,4.965,3.246,7.84,3.246
				c1.726,0,3.464-0.402,5.07-1.23c33.299-17.148,53.984-51.017,53.984-88.392v-10.72h65.41c0.83,0,1.635-0.099,2.413-0.271
				l17.381,21.568c19.378,24.055,30.052,54.315,30.052,85.207V443.078z"/>
			<path d="M408.935,170.454c-6.12,0-11.082,4.962-11.082,11.082v1.293c0,6.121,4.963,11.082,11.082,11.082
				s11.082-4.961,11.082-11.082v-1.293C420.017,175.417,415.055,170.454,408.935,170.454z"/>
			<path d="M157.368,459.701h22.164c6.12,0,11.082-4.962,11.082-11.082s-4.963-11.082-11.082-11.082h-22.164
				c-6.12,0-11.082,4.962-11.082,11.082S151.248,459.701,157.368,459.701z"/>
			<path d="M332.468,459.701h22.164c6.12,0,11.082-4.962,11.082-11.082s-4.963-11.082-11.082-11.082h-22.164
				c-6.12,0-11.082,4.962-11.082,11.082S326.348,459.701,332.468,459.701z"/>
		</g>
	</g>
</g>
</svg>