<?xml version="1.0" encoding="iso-8859-1"?>
<!-- Uploaded to: SVG Repo, www.svgrepo.com, Generator: SVG Repo Mixer Tools -->
<!DOCTYPE svg PUBLIC "-//W3C//DTD SVG 1.1//EN" "http://www.w3.org/Graphics/SVG/1.1/DTD/svg11.dtd">
<svg fill="#000000" height="800px" width="800px" version="1.1" id="Capa_1" xmlns="http://www.w3.org/2000/svg" xmlns:xlink="http://www.w3.org/1999/xlink" 
	 viewBox="0 0 297 297" xml:space="preserve">
<path d="M255.373,160.68c0.073-0.164,0.142-0.331,0.207-0.499c16.927-44.319,4.708-78.116,0.651-87.278V9.884
	c0-5.458-4.425-9.884-9.884-9.884c-5.458,0-9.884,4.425-9.884,9.884v52.193c-6.988-1.466-16.18-2.682-26.4-2.209
	c-18.001,0.83-42.213,7.112-61.564,30.723c-19.35-23.61-43.563-29.893-61.564-30.723c-10.221-0.47-19.412,0.747-26.4,2.212V9.884
	C60.537,4.425,56.111,0,50.653,0S40.77,4.425,40.77,9.884v63.019c-4.058,9.162-16.277,42.959,0.651,87.278
	c0.065,0.168,0.133,0.335,0.207,0.499c0.293,0.658,29.025,66.463,0.255,121.883c-1.591,3.064-1.467,6.736,0.325,9.686
	c1.792,2.951,4.994,4.752,8.446,4.752h195.694c3.452,0,6.654-1.801,8.446-4.752c1.792-2.95,1.916-6.622,0.325-9.686
	C226.459,227.355,255.086,161.328,255.373,160.68z M231.184,277.233H65.816c21.68-58.448-3.706-119.041-6.016-124.332
	c-13.118-34.544-5.442-60.773-1.896-69.789c5.281-1.564,15.862-4.056,28.122-3.499c23.169,1.068,41.343,12.247,54.014,33.227
	c1.789,2.963,4.999,4.774,8.46,4.774s6.67-1.811,8.46-4.774c25.932-42.933,69.286-33.679,82.108-29.774
	c3.507,8.961,11.233,35.333-1.868,69.835C234.89,158.191,209.504,218.785,231.184,277.233z"/>
</svg>